<svg width="61" height="61" viewBox="0 0 61 61" fill="none" xmlns="http://www.w3.org/2000/svg">
<g clip-path="url(#clip0_43_97)">
<path d="M0 0H121V61H0V0Z" fill="#CE1720"/>
<mask id="mask0_43_97" style="mask-type:luminance" maskUnits="userSpaceOnUse" x="0" y="0" width="15" height="61">
<path d="M0.640198 0H14.0846V41.2089H14.6224V60.4578L14.0846 61H0.640198V0Z" fill="white"/>
</mask>
<g mask="url(#mask0_43_97)">
<path d="M3.0602 0V0.948889H2.4552V1.89778H1.71575V2.98222H1.17797V3.86333H0.102417V1.62667H1.17797V0.406667H0.102417V0H3.0602ZM4.80797 5.21889V6.23556H4.2702V7.04889H3.73242V6.23556H3.19464V5.21889H2.65686V3.86333H3.19464V2.84667H3.73242V2.03333H4.2702V2.84667H4.80797V3.86333H5.34575V5.21889H4.80797ZM3.6652 5.15111H4.33742V3.93111H3.6652V5.15111ZM1.91742 12.4033H2.4552V11.1833H1.91742V12.4033ZM5.54742 12.4033H6.0852V11.1833H5.54742V12.4033ZM0.102417 20.6722H1.04353V21.5533H1.44686V22.6378H2.05186V23.6544H2.85853V22.6378H3.46353V21.5533H4.00131V20.6722H3.19464V19.6556H4.60631V20.3333H5.4802V21.4856H6.21964V22.7733H5.68186V23.7222H5.21131V24.6033H4.80797V25.5522H4.20297V26.3656H3.73242V27.1111H3.12742V28.06H2.25353V27.0433H1.64853V26.0944H1.17797V25.4844H0.102417V23.9256H1.17797V22.57H0.102417V20.6722Z" fill="white"/>
<path d="M11.6647 0V0.948889H12.2697V1.89778H13.0091V2.98222H13.5469V3.86333H14.6224V1.62667H13.5469V0.406667H14.6224V0H11.6647ZM9.91688 5.21889V6.23556H10.4547V7.04889H10.9924V6.23556H11.5302V5.21889H12.068V3.86333H11.5302V2.84667H10.9924V2.03333H10.4547V2.84667H9.91688V3.86333H9.3791V5.21889H9.91688ZM11.0597 5.15111H10.3874V3.93111H11.0597V5.15111ZM12.8074 12.4033H12.2697V11.1833H12.8074V12.4033ZM9.17744 12.4033H8.63966V11.1833H9.17744V12.4033ZM14.6224 20.6722H13.6813V21.5533H13.278V22.6378H12.673V23.6544H11.8663V22.6378H11.2613V21.5533H10.7235V20.6722H11.5302V19.6556H10.1185V20.3333H9.24466V21.4856H8.50521V22.7733H9.04299V23.7222H9.51355V24.6033H9.91688V25.5522H10.5219V26.3656H10.9924V27.1111H11.5974V28.06H12.4713V27.0433H13.0763V26.0944H13.5469V25.4844H14.6224V23.9256H13.5469V22.57H14.6224V20.6722Z" fill="white"/>
<path d="M7.09353 0V2.16889H7.63131V0H9.78242V0.948889H9.24464V1.89778H8.43797V2.98222H7.90019V3.86333H6.82464V2.98222H6.28686V1.89778H5.48019V0.948889H4.94242V0H7.09353ZM6.95908 18.5711V17.8256H6.55575V16.9444H6.08519V15.9956H5.54742V15.0467H5.00964V14.3689H4.40464V13.42H3.59797V14.3689H2.99297V15.0467H2.52242V15.9956H1.98464V16.9444H1.58131V17.8256H1.17797V18.9778H0.102417V15.9956H1.17797V14.64H0.102417V12.4033H1.17797V13.3522H1.85019V14.3011H2.52242V13.3522H3.19464V12.4033H3.73242V11.1833H3.19464V10.2344H2.52242V9.28556H1.85019V10.2344H1.17797V11.1833H0.102417V8.40444H1.17797V7.11667H0.102417V5.21889H1.17797V6.1H1.71575V7.18444H2.45519V8.06556H3.06019V9.08222H3.53075V9.89556H4.47186V9.08222H4.94242V8.06556H5.54742V7.18444H6.28686V6.1H6.82464V5.21889H7.90019V6.1H8.43797V7.18444H9.17742V8.06556H9.78242V9.08222H10.253V9.89556H11.1941V9.08222H11.6646V8.06556H12.2696V7.18444H13.0091V6.1H13.5469V5.21889H14.6224V7.11667H13.5469V8.40444H14.6224V11.1833H13.5469V10.2344H12.8746V9.28556H12.2024V10.2344H11.5302V11.1833H10.9924V12.4033H11.5302V13.3522H12.2024V14.3011H12.8746V13.3522H13.5469V12.4033H14.6224V14.64H13.5469V15.9956H14.6224V18.9778H13.5469V17.8256H13.1435V16.9444H12.7402V15.9956H12.2024V15.0467H11.7319V14.3689H11.1269V13.42H10.3202V14.3689H9.71519V15.0467H9.17742V15.9956H8.63964V16.9444H8.16908V17.8256H7.76575V18.5711H6.95908ZM7.09353 7.25222V9.08222H7.63131V7.25222H7.09353ZM6.82464 11.1833V10.2344H6.15242V9.28556H5.48019V10.2344H4.80797V11.1833H4.27019V12.4033H4.80797V13.3522H5.48019V14.3011H6.15242V13.3522H6.82464V12.4033H7.90019V13.3522H8.57242V14.3011H9.24464V13.3522H9.91686V12.4033H10.4546V11.1833H9.91686V10.2344H9.24464V9.28556H8.57242V10.2344H7.90019V11.1833H6.82464ZM7.09353 14.3011V16.1311H7.63131V14.3011H7.09353Z" fill="white"/>
<path d="M3.0602 61V60.0511H2.4552V59.1022H1.71575V58.0178H1.17797V57.1367H0.102417V59.3733H1.17797V60.5933H0.102417V61H3.0602ZM4.80797 55.7811V54.7644H4.2702V53.9511H3.73242V54.7644H3.19464V55.7811H2.65686V57.1367H3.19464V58.1533H3.73242V58.9667H4.2702V58.1533H4.80797V57.1367H5.34575V55.7811H4.80797ZM3.6652 55.8489H4.33742V57.0689H3.6652V55.8489ZM1.91742 48.5967H2.4552V49.8167H1.91742V48.5967ZM5.54742 48.5967H6.0852V49.8167H5.54742V48.5967ZM0.102417 40.3278H1.04353V39.4467H1.44686V38.3622H2.05186V37.3456H2.85853V38.3622H3.46353V39.4467H4.00131V40.3278H3.19464V41.3444H4.60631V40.6667H5.4802V39.5144H6.21964V38.2267H5.68186V37.2778H5.21131V36.3967H4.80797V35.4478H4.20297V34.6344H3.73242V33.8889H3.12742V32.94H2.25353V33.9567H1.64853V34.9056H1.17797V35.5156H0.102417V37.0744H1.17797V38.43H0.102417V40.3278Z" fill="white"/>
<path d="M11.6647 61V60.0511H12.2697V59.1022H13.0091V58.0178H13.5469V57.1367H14.6224V59.3733H13.5469V60.5933H14.6224V61H11.6647ZM9.91688 55.7811V54.7644H10.4547V53.9511H10.9924V54.7644H11.5302V55.7811H12.068V57.1367H11.5302V58.1533H10.9924V58.9667H10.4547V58.1533H9.91688V57.1367H9.3791V55.7811H9.91688ZM11.0597 55.8489H10.3874V57.0689H11.0597V55.8489ZM12.8074 48.5967H12.2697V49.8167H12.8074V48.5967ZM9.17744 48.5967H8.63966V49.8167H9.17744V48.5967ZM14.6224 40.3278H13.6813V39.4467H13.278V38.3622H12.673V37.3456H11.8663V38.3622H11.2613V39.4467H10.7235V40.3278H11.5302V41.3444H10.1185V40.6667H9.24466V39.5144H8.50521V38.2267H9.04299V37.2778H9.51355V36.3967H9.91688V35.4478H10.5219V34.6344H10.9924V33.8889H11.5974V32.94H12.4713V33.9567H13.0763V34.9056H13.5469V35.5156H14.6224V37.0744H13.5469V38.43H14.6224V40.3278Z" fill="white"/>
<path d="M7.09353 61V58.8311H7.63131V61H9.78242V60.0511H9.24464V59.1022H8.43797V58.0178H7.90019V57.1367H6.82464V58.0178H6.28686V59.1022H5.48019V60.0511H4.94242V61H7.09353ZM6.95908 42.4289V43.1744H6.55575V44.0556H6.08519V45.0044H5.54742V45.9533H5.00964V46.6311H4.40464V47.58H3.59797V46.6311H2.99297V45.9533H2.52242V45.0044H1.98464V44.0556H1.58131V43.1744H1.17797V42.0222H0.102417V45.0044H1.17797V46.36H0.102417V48.5967H1.17797V47.6478H1.85019V46.6989H2.52242V47.6478H3.19464V48.5967H3.73242V49.8167H3.19464V50.7656H2.52242V51.7144H1.85019V50.7656H1.17797V49.8167H0.102417V52.5956H1.17797V53.8833H0.102417V55.7811H1.17797V54.9H1.71575V53.8156H2.45519V52.9344H3.06019V51.9178H3.53075V51.1044H4.47186V51.9178H4.94242V52.9344H5.54742V53.8156H6.28686V54.9H6.82464V55.7811H7.90019V54.9H8.43797V53.8156H9.17742V52.9344H9.78242V51.9178H10.253V51.1044H11.1941V51.9178H11.6646V52.9344H12.2696V53.8156H13.0091V54.9H13.5469V55.7811H14.6224V53.8833H13.5469V52.5956H14.6224V49.8167H13.5469V50.7656H12.8746V51.7144H12.2024V50.7656H11.5302V49.8167H10.9924V48.5967H11.5302V47.6478H12.2024V46.6989H12.8746V47.6478H13.5469V48.5967H14.6224V46.36H13.5469V45.0044H14.6224V42.0222H13.5469V43.1744H13.1435V44.0556H12.7402V45.0044H12.2024V45.9533H11.7319V46.6311H11.1269V47.58H10.3202V46.6311H9.71519V45.9533H9.17742V45.0044H8.63964V44.0556H8.16908V43.1744H7.76575V42.4289H6.95908ZM7.09353 53.7478V51.9178H7.63131V53.7478H7.09353ZM6.82464 49.8167V50.7656H6.15242V51.7144H5.48019V50.7656H4.80797V49.8167H4.27019V48.5967H4.80797V47.6478H5.48019V46.6989H6.15242V47.6478H6.82464V48.5967H7.90019V47.6478H8.57242V46.6989H9.24464V47.6478H9.91686V48.5967H10.4546V49.8167H9.91686V50.7656H9.24464V51.7144H8.57242V50.7656H7.90019V49.8167H6.82464ZM7.09353 46.6989V44.8689H7.63131V46.6989H7.09353Z" fill="white"/>
<path d="M0.102417 27.6533H1.17797V28.6022H1.64853V29.1444H2.18631V30.0933H2.65686V30.9066H2.18631V31.8555H1.64853V32.3978H1.17797V33.3466H0.102417V27.6533ZM14.6224 27.6533V33.3466H13.5469V32.3978H13.0763V31.8555H12.5385V30.9066H12.068V30.0933H12.5385V29.1444H13.0763V28.6022H13.5469V27.6533H14.6224ZM4.80797 31.11H5.34575V29.89H4.80797V31.11ZM9.91686 31.11V29.89H9.37908V31.11H9.91686ZM7.09353 27.1111H7.63131V25.8911H7.09353V27.1111ZM7.09353 33.8889V35.1089H7.63131V33.8889H7.09353ZM3.73242 28.8055H4.67353V28.06H5.34575V27.3822H5.68186V26.7044H6.08519V25.7555H6.62297V24.8066H6.89186V23.9255H7.83297V24.8066H8.10186V25.7555H8.63964V26.7044H9.04297V27.3822H9.37908V28.06H10.0513V28.8055H10.9924V32.1944H10.0513V32.94H9.37908V33.6178H9.04297V34.2955H8.63964V35.2444H8.10186V36.1933H7.83297V37.0744H6.89186V36.1933H6.62297V35.2444H6.08519V34.2955H5.68186V33.6178H5.34575V32.94H4.67353V32.1944H3.73242V28.8055ZM7.09353 29.4155V28.3989H6.55575V27.7211H6.01797V29.4155H6.55575V30.0255H6.89186V30.9744H6.55575V31.5844H6.01797V33.2789H6.55575V32.6011H7.09353V31.5844H7.63131V32.6011H8.16908V33.2789H8.70686V31.5844H8.16908V30.9744H7.83297V30.0255H8.16908V29.4155H8.70686V27.7211H8.16908V28.3989H7.63131V29.4155H7.09353Z" fill="white"/>
</g>
<path d="M14.0847 40.6666H121V61H14.0847V40.6666Z" fill="#007C30"/>
</g>
<defs>
<clipPath id="clip0_43_97">
<rect width="61" height="61" fill="white"/>
</clipPath>
</defs>
</svg>
