<svg width="633" height="382" viewBox="0 0 633 382" fill="none" xmlns="http://www.w3.org/2000/svg">
<g filter="url(#filter0_ddd_45_203)">
<path d="M200.786 148.054H75.8722C64.0937 148.054 54.5454 157.603 54.5454 169.381V208.988C54.5454 220.766 64.0937 230.315 75.8722 230.315H200.786C212.565 230.315 222.113 220.766 222.113 208.988V169.381C222.113 157.603 212.565 148.054 200.786 148.054Z" fill="white"/>
<path d="M234.3 169.381C234.3 157.603 243.848 148.054 255.627 148.054H371.401C383.179 148.054 392.727 157.603 392.727 169.381V208.988C392.727 220.766 383.179 230.315 371.401 230.315H255.627C243.848 230.315 234.3 220.766 234.3 208.988V169.381Z" fill="white"/>
<mask id="mask0_45_203" style="mask-type:luminance" maskUnits="userSpaceOnUse" x="54" y="38" width="339" height="98">
<path d="M371.401 38.3735H75.8722C64.0937 38.3735 54.5454 47.9219 54.5454 59.7003V114.541C54.5454 126.319 64.0937 135.867 75.8722 135.867H371.401C383.179 135.867 392.728 126.319 392.728 114.541V59.7003C392.728 47.9219 383.179 38.3735 371.401 38.3735Z" fill="white"/>
</mask>
<g mask="url(#mask0_45_203)">
<path d="M371.401 38.3734H75.8722C64.0937 38.3734 54.5454 47.9217 54.5454 59.7002V123.681C54.5454 135.459 64.0937 145.007 75.8722 145.007H371.401C383.179 145.007 392.728 135.459 392.728 123.681V59.7002C392.728 47.9217 383.179 38.3734 371.401 38.3734Z" fill="white"/>
<path d="M51 134C51 134 90.6994 75.0015 118.299 75.0015C145.899 75.0015 161.4 134 189 134C216.6 134 230.4 117.8 258 106.002C285.6 94.1996 300.615 108.999 328.215 106.002C355.815 103 396 72 396 72" stroke="#FF9D28"/>
<path d="M49 94.3104C49 94.3104 90.28 85.8373 117.8 85.8373C145.32 85.8373 159.08 95.203 186.6 95.203C214.12 95.203 227.88 68 255.4 68C282.92 68 296.68 101 324.2 101C351.72 101 393 88.0672 393 88.0672" stroke="#16E09E"/>
<path d="M51.4988 79.6927C51.4988 79.6927 92.8119 123.87 120.354 120.445C147.896 117.021 161.667 99.8982 189.209 99.8982C216.751 99.8982 230.522 103.664 258.064 103.664C285.606 103.664 299.377 77.9805 326.919 77.9805C354.461 77.9805 395.774 94.2467 395.774 94.2467" stroke="#012030"/>
</g>
<path d="M104.333 196.776L104.384 218.937C104.387 220.173 105.391 221.174 106.627 221.173L108.735 221.172C109.971 221.171 110.971 220.168 110.968 218.933L110.917 196.771C110.914 195.536 109.91 194.535 108.674 194.536L106.565 194.537C105.33 194.538 104.33 195.54 104.333 196.776Z" fill="#012030"/>
<path d="M117.014 175.712L117.112 218.65C117.116 220.044 118.12 221.174 119.356 221.173L121.464 221.172C122.7 221.171 123.699 220.039 123.696 218.645L123.597 175.707C123.594 174.313 122.59 173.183 121.354 173.184L119.245 173.185C118.01 173.186 117.01 174.317 117.014 175.712Z" fill="#012030"/>
<path d="M129.805 203.803L129.839 220.089C129.84 220.689 130.843 221.174 132.079 221.173L134.187 221.171C135.423 221.17 136.424 220.683 136.423 220.083L136.389 203.798C136.388 203.198 135.385 202.712 134.149 202.713L132.04 202.715C130.805 202.716 129.804 203.203 129.805 203.803Z" fill="#012030"/>
<path d="M69.8138 195.362L69.8641 219.561C69.8659 220.452 70.8692 221.174 72.1048 221.173L74.2137 221.171C75.4494 221.17 76.4496 220.447 76.4478 219.556L76.3975 195.356C76.3957 194.465 75.3924 193.743 74.1568 193.744L72.0479 193.746C70.8122 193.747 69.812 194.47 69.8138 195.362Z" fill="#012030"/>
<path d="M142.437 161.855L142.568 218.676C142.571 220.056 143.575 221.174 144.811 221.173L146.92 221.172C148.155 221.171 149.155 220.052 149.151 218.672L149.021 161.85C149.018 160.47 148.013 159.352 146.778 159.353L144.669 159.355C143.433 159.356 142.434 160.475 142.437 161.855Z" fill="#16E09E"/>
<path d="M82.4741 168.05L82.5912 218.937C82.594 220.173 83.598 221.174 84.8337 221.173L86.9426 221.172C88.1783 221.171 89.1777 220.168 89.1748 218.933L89.0578 168.045C89.055 166.809 88.0509 165.808 86.8152 165.809L84.7064 165.811C83.4707 165.812 82.4713 166.814 82.4741 168.05Z" fill="#16E09E"/>
<path d="M164.337 175.448L164.437 218.937C164.44 220.173 165.444 221.174 166.68 221.173L168.789 221.172C170.025 221.171 171.024 220.168 171.021 218.933L170.921 175.443C170.918 174.207 169.914 173.206 168.679 173.207L166.57 173.209C165.334 173.21 164.335 174.212 164.337 175.448Z" fill="#012030"/>
<path d="M177.106 185.388L177.176 218.937C177.178 220.173 178.182 221.174 179.418 221.173L181.527 221.171C182.762 221.17 183.762 220.168 183.759 218.932L183.69 185.382C183.687 184.147 182.683 183.146 181.448 183.147L179.339 183.148C178.103 183.149 177.104 184.152 177.106 185.388Z" fill="#012030"/>
<path d="M189.787 168.117L189.904 218.937C189.907 220.173 190.911 221.174 192.147 221.173L194.256 221.172C195.491 221.171 196.491 220.168 196.488 218.933L196.371 168.112C196.368 166.877 195.364 165.876 194.129 165.877L192.02 165.878C190.784 165.879 189.785 166.881 189.787 168.117Z" fill="#16E09E"/>
<path d="M202.542 179.31L202.632 218.416C202.636 219.94 203.64 221.174 204.876 221.173L206.985 221.172C208.221 221.171 209.22 219.935 209.216 218.411L209.126 179.305C209.123 177.781 208.118 176.547 206.882 176.548L204.773 176.549C203.538 176.55 202.539 177.786 202.542 179.31Z" fill="#012030"/>
<path d="M252.587 186.501L252.655 218.937C252.657 220.173 253.661 221.174 254.897 221.173L256.828 221.171C258.064 221.171 259.063 220.168 259.061 218.932L258.993 186.496C258.991 185.26 257.987 184.259 256.751 184.26L254.82 184.262C253.584 184.263 252.584 185.265 252.587 186.501Z" fill="#012030"/>
<path d="M261.979 165.54L262.102 218.937C262.105 220.173 263.109 221.174 264.344 221.173L266.276 221.172C267.511 221.171 268.511 220.168 268.508 218.933L268.385 165.535C268.382 164.299 267.378 163.298 266.142 163.299L264.211 163.301C262.975 163.302 261.976 164.304 261.979 165.54Z" fill="#16E09E"/>
<path d="M271.445 205.387L271.48 220.378C271.481 220.818 272.483 221.174 273.719 221.173L275.65 221.172C276.886 221.171 277.887 220.813 277.886 220.373L277.851 205.382C277.85 204.942 276.848 204.586 275.612 204.587L273.681 204.588C272.445 204.589 271.444 204.946 271.445 205.387Z" fill="#012030"/>
<path d="M300.846 186.501L300.914 218.937C300.916 220.173 301.92 221.174 303.156 221.173L305.087 221.171C306.323 221.171 307.323 220.168 307.32 218.932L307.253 186.496C307.25 185.26 306.246 184.259 305.01 184.26L303.079 184.262C301.843 184.263 300.844 185.265 300.846 186.501Z" fill="#012030"/>
<path d="M310.244 165.54L310.367 218.937C310.37 220.173 311.374 221.174 312.61 221.173L314.541 221.172C315.777 221.171 316.776 220.168 316.774 218.933L316.65 165.535C316.648 164.299 315.644 163.298 314.408 163.299L312.476 163.301C311.241 163.302 310.241 164.304 310.244 165.54Z" fill="#16E09E"/>
<path d="M319.608 173.942L319.703 215.186C319.71 218.493 320.718 221.174 321.954 221.173L323.886 221.172C325.121 221.171 326.117 218.489 326.109 215.181L326.014 173.938C326.006 170.63 324.998 167.949 323.763 167.95L321.831 167.952C320.596 167.952 319.6 170.635 319.608 173.942Z" fill="#012030"/>
<path d="M349.107 176.69L349.195 218.937C349.197 220.173 350.201 221.174 351.437 221.173L353.368 221.171C354.604 221.171 355.604 220.168 355.601 218.932L355.513 176.685C355.511 175.449 354.507 174.448 353.271 174.449L351.34 174.451C350.104 174.452 349.104 175.454 349.107 176.69Z" fill="#012030"/>
<path d="M358.5 179.672L358.59 218.937C358.593 220.173 359.597 221.174 360.833 221.173L362.764 221.172C364 221.171 364.999 220.168 364.997 218.933L364.906 179.668C364.903 178.432 363.899 177.431 362.663 177.432L360.732 177.433C359.496 177.434 358.497 178.437 358.5 179.672Z" fill="#16E09E"/>
<path d="M367.894 188.286L367.965 218.937C367.968 220.173 368.972 221.174 370.208 221.173L372.139 221.172C373.375 221.171 374.374 220.168 374.371 218.933L374.301 188.281C374.298 187.046 373.294 186.045 372.058 186.045L370.127 186.047C368.891 186.048 367.892 187.05 367.894 188.286Z" fill="#012030"/>
<path d="M557.249 38.3735H426.241C414.463 38.3735 404.914 47.9219 404.914 59.7003V291.248C404.914 303.027 414.463 312.575 426.241 312.575H557.249C569.027 312.575 578.575 303.027 578.575 291.248V59.7003C578.575 47.9219 569.027 38.3735 557.249 38.3735Z" fill="white"/>
<path d="M438.428 208.988H435.381C433.699 208.988 432.334 210.352 432.334 212.035V215.081C432.334 216.764 433.699 218.128 435.381 218.128H438.428C440.11 218.128 441.475 216.764 441.475 215.081V212.035C441.475 210.352 440.11 208.988 438.428 208.988Z" fill="#012030"/>
<path d="M535.922 208.988H450.615C448.932 208.988 447.568 210.352 447.568 212.035V215.081C447.568 216.764 448.932 218.128 450.615 218.128H535.922C537.604 218.128 538.968 216.764 538.968 215.081V212.035C538.968 210.352 537.604 208.988 535.922 208.988Z" fill="#D9D9D9"/>
<path d="M438.428 227.268H435.381C433.699 227.268 432.334 228.632 432.334 230.315V233.361C432.334 235.044 433.699 236.408 435.381 236.408H438.428C440.11 236.408 441.475 235.044 441.475 233.361V230.315C441.475 228.632 440.11 227.268 438.428 227.268Z" fill="#16E09E"/>
<path d="M520.688 227.268H450.615C448.932 227.268 447.568 228.632 447.568 230.315V233.361C447.568 235.044 448.932 236.408 450.615 236.408H520.688C522.371 236.408 523.735 235.044 523.735 233.361V230.315C523.735 228.632 522.371 227.268 520.688 227.268Z" fill="#D9D9D9"/>
<path d="M438.428 245.548H435.381C433.699 245.548 432.334 246.912 432.334 248.595V251.642C432.334 253.324 433.699 254.688 435.381 254.688H438.428C440.11 254.688 441.475 253.324 441.475 251.642V248.595C441.475 246.912 440.11 245.548 438.428 245.548Z" fill="#FF9D28"/>
<path d="M520.688 245.548H450.615C448.932 245.548 447.568 246.912 447.568 248.595V251.642C447.568 253.324 448.932 254.688 450.615 254.688H520.688C522.371 254.688 523.735 253.324 523.735 251.642V248.595C523.735 246.912 522.371 245.548 520.688 245.548Z" fill="#D9D9D9"/>
<path d="M438.428 263.828H435.381C433.699 263.828 432.334 265.192 432.334 266.875V269.922C432.334 271.604 433.699 272.968 435.381 272.968H438.428C440.11 272.968 441.475 271.604 441.475 269.922V266.875C441.475 265.192 440.11 263.828 438.428 263.828Z" fill="#FF492C"/>
<path d="M520.688 263.828H450.615C448.932 263.828 447.568 265.192 447.568 266.875V269.922C447.568 271.604 448.932 272.968 450.615 272.968H520.688C522.371 272.968 523.735 271.604 523.735 269.922V266.875C523.735 265.192 522.371 263.828 520.688 263.828Z" fill="#D9D9D9"/>
<path d="M438.428 282.108H435.381C433.699 282.108 432.334 283.472 432.334 285.155V288.202C432.334 289.884 433.699 291.248 435.381 291.248H438.428C440.11 291.248 441.475 289.884 441.475 288.202V285.155C441.475 283.472 440.11 282.108 438.428 282.108Z" fill="#7C4EFF"/>
<path d="M520.688 282.108H450.615C448.932 282.108 447.568 283.472 447.568 285.155V288.202C447.568 289.884 448.932 291.248 450.615 291.248H520.688C522.371 291.248 523.735 289.884 523.735 288.202V285.155C523.735 283.472 522.371 282.108 520.688 282.108Z" fill="#D9D9D9"/>
<path d="M488.698 62.7471C502.033 62.7471 515.052 66.6803 526.014 74.0167C536.973 81.3562 545.354 91.7515 550.034 103.813C554.717 115.875 555.475 129.031 552.209 141.522C548.943 154.011 541.811 165.241 531.763 173.71L488.698 126.027V62.7471Z" fill="#012030"/>
<path d="M517.928 158.65C512.657 163.096 506.375 166.273 499.59 167.928C492.808 169.582 485.715 169.667 478.894 168.174L488.707 126.294L517.928 158.65Z" fill="#16E09E"/>
<path d="M477.858 172.583C469.513 170.758 461.808 166.861 455.501 161.273C449.198 155.689 444.512 148.609 441.907 140.736L488.707 126.294L477.858 172.583Z" fill="#FF9D28"/>
<path d="M446.364 139.362C444.238 132.924 443.711 126.09 444.832 119.421C445.95 112.749 448.686 106.427 452.811 100.97L488.707 126.294L446.364 139.362Z" fill="#FF492C"/>
<path d="M452.811 100.971C456.936 95.5109 462.338 91.0718 468.578 88.0099C474.814 84.951 481.712 83.3545 488.707 83.3545V126.294L452.811 100.971Z" fill="#7C4EFF"/>
<mask id="mask1_45_203" style="mask-type:luminance" maskUnits="userSpaceOnUse" x="54" y="242" width="339" height="71">
<path d="M371.401 242.501H75.8722C64.0937 242.501 54.5454 252.05 54.5454 263.828V291.248C54.5454 303.027 64.0937 312.575 75.8722 312.575H371.401C383.179 312.575 392.728 303.027 392.728 291.248V263.828C392.728 252.05 383.179 242.501 371.401 242.501Z" fill="white"/>
</mask>
<g mask="url(#mask1_45_203)">
<g filter="url(#filter1_d_45_203)">
<path d="M371.401 242.501H75.8722C64.0937 242.501 54.5454 252.05 54.5454 263.828V297.342C54.5454 309.12 64.0937 318.668 75.8722 318.668H371.401C383.179 318.668 392.728 309.12 392.728 297.342V263.828C392.728 252.05 383.179 242.501 371.401 242.501Z" fill="white"/>
</g>
<path opacity="0.2" fill-rule="evenodd" clip-rule="evenodd" d="M45 306.715C73.826 306.715 74.1771 288.144 103 288.144C131.826 288.144 132.177 269.57 161 269.57C189.826 269.57 190.177 251 219 251C247.826 251 248.177 297.43 277 297.43C305.826 297.43 306.177 278.859 335 278.859C363.826 278.859 364.177 260.285 393 260.285V316H45V306.715Z" fill="#16E09E"/>
<path d="M45 308C73.826 308 74.1771 289.001 103 289.001C131.826 289.001 132.177 270.003 161 270.003C189.826 270.003 190.177 251 219 251C247.826 251 248.177 298.501 277 298.501C305.826 298.501 306.177 279.502 335 279.502C363.826 279.502 364.177 260.503 393 260.503" stroke="#012030" stroke-width="0.423256" stroke-linejoin="round"/>
<path d="M218.168 253.336C219.366 253.336 220.336 252.365 220.336 251.168C220.336 249.971 219.366 249 218.168 249C216.971 249 216 249.971 216 251.168C216 252.365 216.971 253.336 218.168 253.336Z" fill="white" stroke="#0E9CFF" stroke-width="0.423256"/>
<path d="M71.1681 302.336C72.3656 302.336 73.3363 301.365 73.3363 300.168C73.3363 298.971 72.3656 298 71.1681 298C69.9707 298 69 298.971 69 300.168C69 301.365 69.9707 302.336 71.1681 302.336Z" fill="white" stroke="#F83A3B" stroke-width="0.423256"/>
</g>
<path d="M566.465 17.0465H66.7321C48.223 17.0465 33.2185 32.051 33.2185 50.5601V299.246C33.2185 317.755 48.223 332.759 66.7321 332.759H566.465C584.974 332.759 599.978 317.755 599.978 299.246V50.5601C599.978 32.051 584.974 17.0465 566.465 17.0465Z" stroke="#F3F5F8" stroke-width="2"/>
</g>
<defs>
<filter id="filter0_ddd_45_203" x="0.218506" y="0.0465088" width="632.76" height="381.713" filterUnits="userSpaceOnUse" color-interpolation-filters="sRGB">
<feFlood flood-opacity="0" result="BackgroundImageFix"/>
<feColorMatrix in="SourceAlpha" type="matrix" values="0 0 0 0 0 0 0 0 0 0 0 0 0 0 0 0 0 0 127 0" result="hardAlpha"/>
<feOffset dy="4"/>
<feGaussianBlur stdDeviation="4"/>
<feComposite in2="hardAlpha" operator="out"/>
<feColorMatrix type="matrix" values="0 0 0 0 0.486275 0 0 0 0 0.305882 0 0 0 0 1 0 0 0 0.03 0"/>
<feBlend mode="normal" in2="BackgroundImageFix" result="effect1_dropShadow_45_203"/>
<feColorMatrix in="SourceAlpha" type="matrix" values="0 0 0 0 0 0 0 0 0 0 0 0 0 0 0 0 0 0 127 0" result="hardAlpha"/>
<feOffset dy="8"/>
<feGaussianBlur stdDeviation="8"/>
<feComposite in2="hardAlpha" operator="out"/>
<feColorMatrix type="matrix" values="0 0 0 0 0.486275 0 0 0 0 0.305882 0 0 0 0 1 0 0 0 0.03 0"/>
<feBlend mode="normal" in2="effect1_dropShadow_45_203" result="effect2_dropShadow_45_203"/>
<feColorMatrix in="SourceAlpha" type="matrix" values="0 0 0 0 0 0 0 0 0 0 0 0 0 0 0 0 0 0 127 0" result="hardAlpha"/>
<feOffset dy="16"/>
<feGaussianBlur stdDeviation="16"/>
<feComposite in2="hardAlpha" operator="out"/>
<feColorMatrix type="matrix" values="0 0 0 0 0.486353 0 0 0 0 0.305882 0 0 0 0 1 0 0 0 0.06 0"/>
<feBlend mode="normal" in2="effect2_dropShadow_45_203" result="effect3_dropShadow_45_203"/>
<feBlend mode="normal" in="SourceGraphic" in2="effect3_dropShadow_45_203" result="shape"/>
</filter>
<filter id="filter1_d_45_203" x="54.1277" y="241.666" width="341.524" height="79.5092" filterUnits="userSpaceOnUse" color-interpolation-filters="sRGB">
<feFlood flood-opacity="0" result="BackgroundImageFix"/>
<feColorMatrix in="SourceAlpha" type="matrix" values="0 0 0 0 0 0 0 0 0 0 0 0 0 0 0 0 0 0 127 0" result="hardAlpha"/>
<feOffset dx="1.25323" dy="0.835484"/>
<feGaussianBlur stdDeviation="0.835484"/>
<feComposite in2="hardAlpha" operator="out"/>
<feColorMatrix type="matrix" values="0 0 0 0 0 0 0 0 0 0 0 0 0 0 0 0 0 0 0.25 0"/>
<feBlend mode="normal" in2="BackgroundImageFix" result="effect1_dropShadow_45_203"/>
<feBlend mode="normal" in="SourceGraphic" in2="effect1_dropShadow_45_203" result="shape"/>
</filter>
</defs>
</svg>
