<svg width="460" height="408" viewBox="0 0 460 408" fill="none" xmlns="http://www.w3.org/2000/svg">
<path d="M285 280L285 303.807L285 369.561L285 381C285 383.761 287.239 386 290 386L364 386" stroke="#F3F5F8" stroke-width="4"/>
<path d="M86 140L86 194C86 196.761 88.2386 199 91 199L208 199" stroke="#F3F5F8" stroke-width="4"/>
<path d="M325 198L325 189.241L325 165.048L325 164C325 161.239 327.239 159 330 159L384 159" stroke="#F3F5F8" stroke-width="4"/>
<path d="M226 331C226 331.35 226 331.683 226 332C226 334.762 223.761 337 221 337L158 337" stroke="#F3F5F8" stroke-width="4"/>
<g filter="url(#filter0_d_82_75)">
<circle cx="266.179" cy="250.821" r="90.1788" fill="#F3F5F8"/>
</g>
<path d="M223.207 290.742C224.264 291.443 225.072 292.27 225.634 293.223C226.193 294.176 226.473 295.211 226.473 296.328C226.473 297.446 226.193 298.481 225.634 299.433C225.072 300.387 224.264 301.214 223.207 301.915C222.371 302.485 221.415 302.918 220.337 303.214C219.26 303.508 218.139 303.656 216.974 303.656C215.807 303.656 214.69 303.508 213.624 303.214C212.558 302.918 211.596 302.485 210.738 301.915C210.165 301.542 209.648 301.104 209.186 300.601L208.659 299.975L210.376 294.75L211.826 296.13C212.047 296.35 212.228 296.509 212.37 296.608C212.513 296.706 212.76 296.876 213.114 297.116L213.344 297.248C213.783 297.555 214.328 297.796 214.977 297.972C215.625 298.147 216.291 298.234 216.974 298.234C217.677 298.234 218.347 298.147 218.985 297.972C219.623 297.796 220.173 297.555 220.635 297.248C220.986 297.007 221.162 296.695 221.162 296.312C221.162 295.928 220.986 295.616 220.635 295.375C220.173 295.068 219.623 294.832 218.985 294.668C218.347 294.504 217.677 294.422 216.974 294.422C215.807 294.422 214.69 294.274 213.624 293.978C212.558 293.682 211.596 293.25 210.738 292.681C209.681 291.979 208.878 291.152 208.328 290.2C207.778 289.246 207.503 288.21 207.503 287.093C207.503 285.976 207.778 284.941 208.328 283.988C208.878 283.034 209.681 282.207 210.738 281.506C211.596 280.936 212.558 280.504 213.624 280.209C214.69 279.913 215.807 279.765 216.974 279.765C218.139 279.765 219.26 279.913 220.337 280.209C221.415 280.504 222.371 280.936 223.207 281.506C223.516 281.704 223.791 281.907 224.032 282.115C224.275 282.322 224.517 282.547 224.758 282.789L225.286 283.379L223.572 288.769L222.085 287.257C221.909 287.082 221.762 286.945 221.642 286.847C221.52 286.748 221.316 286.611 221.03 286.436C220.986 286.393 220.925 286.349 220.848 286.304C220.771 286.261 220.689 286.218 220.601 286.173C220.162 285.866 219.623 285.625 218.985 285.449C218.347 285.274 217.677 285.187 216.974 285.187C216.291 285.187 215.625 285.274 214.977 285.449C214.328 285.625 213.783 285.866 213.344 286.173C212.992 286.413 212.816 286.726 212.816 287.109C212.816 287.493 212.992 287.805 213.344 288.046C213.783 288.353 214.328 288.588 214.977 288.752C215.625 288.916 216.291 288.998 216.974 288.998C218.139 288.998 219.26 289.147 220.337 289.443C221.415 289.739 222.371 290.172 223.207 290.742Z" fill="#3755FA"/>
<path d="M245.442 280.358H250.39V303.393H245.113V293.797C245.113 293.731 245.075 293.688 244.998 293.665C244.92 293.645 244.859 293.667 244.816 293.732L241.879 299.844H237.755L234.787 293.766C234.742 293.678 234.687 293.645 234.622 293.665C234.556 293.688 234.523 293.743 234.523 293.83V303.393H229.244V280.358H234.159L239.669 291.728C239.713 291.771 239.763 291.793 239.817 291.793C239.873 291.793 239.912 291.771 239.932 291.728L245.442 280.358Z" fill="#3755FA"/>
<path d="M268.47 280.358L276.782 303.393H271.175L270.316 301.06C270.273 300.907 270.175 300.83 270.021 300.83H260.057C259.926 300.83 259.827 300.907 259.76 301.06L258.935 303.393H253.327L261.642 280.358H268.47ZM264.742 287.257L261.906 295.146C261.861 295.254 261.871 295.352 261.937 295.44C262.004 295.528 262.092 295.571 262.201 295.571H267.909C268.195 295.571 268.294 295.43 268.206 295.146L265.368 287.257C265.302 287.105 265.193 287.028 265.039 287.028C264.886 287.028 264.787 287.105 264.742 287.257Z" fill="#3755FA"/>
<path d="M279.489 280.324H291.597C292.983 280.324 294.285 280.587 295.505 281.112C296.726 281.638 297.798 282.355 298.722 283.264C299.646 284.173 300.372 285.242 300.899 286.469C301.427 287.695 301.69 288.998 301.69 290.379C301.69 291.541 301.493 292.665 301.098 293.749C300.702 294.833 300.13 295.824 299.382 296.722C298.259 298.103 296.852 299.111 295.159 299.746L296.545 303.393H290.87L289.815 300.601C289.771 300.469 289.683 300.403 289.552 300.403H285.03C284.854 300.403 284.766 300.502 284.766 300.699V303.393H279.489V280.324ZM285.03 295.146H291.563C292.223 295.146 292.844 295.019 293.426 294.766C294.009 294.515 294.521 294.176 294.96 293.749C295.4 293.321 295.747 292.817 296.001 292.237C296.254 291.656 296.38 291.037 296.38 290.379C296.38 289.723 296.258 289.104 296.015 288.523C295.774 287.942 295.434 287.432 294.994 286.995C294.555 286.557 294.043 286.212 293.46 285.96C292.876 285.707 292.255 285.581 291.597 285.581H285.03C284.854 285.581 284.766 285.679 284.766 285.877V294.881C284.766 295.058 284.854 295.146 285.03 295.146Z" fill="#3755FA"/>
<path d="M305.222 280.358H325.642V285.614H318.317C318.164 285.614 318.087 285.691 318.087 285.844V303.393H312.808V285.844C312.808 285.691 312.731 285.614 312.578 285.614H305.222V280.358Z" fill="#3755FA"/>
<path d="M266.228 210.183C269.7 210.183 272.514 207.379 272.514 203.921C272.514 200.463 269.7 197.659 266.228 197.659C262.757 197.659 259.942 200.463 259.942 203.921C259.942 207.379 262.757 210.183 266.228 210.183Z" fill="#3755FA"/>
<path d="M281.228 204.018C282.418 199.982 288.578 201.785 287.388 205.821L283.476 218.951C283.01 220.529 281.432 221.478 279.843 221.2L271.831 219.786L271.899 240.401L275.051 256.319C275.088 256.507 275.107 256.695 275.11 256.881L276.01 271.169C276.274 275.369 269.863 275.77 269.598 271.57L268.704 257.366L266.495 246.212L264.286 257.366L263.393 271.57C263.128 275.77 256.716 275.369 256.981 271.169L257.88 256.881C257.883 256.695 257.903 256.507 257.94 256.319L261.092 240.401L261.159 219.787L253.147 221.201C251.559 221.479 249.98 220.53 249.515 218.952L245.604 205.822C244.413 201.786 250.573 199.983 251.764 204.019L254.855 214.396C266.253 212.376 266.738 212.376 278.136 214.395L281.228 204.018Z" fill="#3755FA"/>
<path d="M356 35L334.888 35L276.578 35L267 35C264.239 35 262 37.2386 262 40L262 165" stroke="#F3F5F8" stroke-width="4"/>
<rect x="1.5" y="27.5" width="168" height="111" rx="14.5" stroke="#F3F5F8" stroke-width="3"/>
<rect x="56.5" y="42.5" width="58" height="5" rx="2.5" stroke="#F3F5F8"/>
<rect x="44.5" y="35.5" width="83" height="5" rx="2.5" stroke="#F3F5F8"/>
<rect x="9.5" y="62.5" width="152" height="5" rx="2.5" stroke="#F3F5F8"/>
<rect x="9.5" y="80.5" width="100" height="5" rx="2.5" stroke="#F3F5F8"/>
<rect x="9.5" y="70.5" width="89" height="5" rx="2.5" stroke="#F3F5F8"/>
<rect x="9.5" y="88.5" width="102" height="5" rx="2.5" stroke="#F3F5F8"/>
<rect x="9.5" y="111.5" width="63" height="10" rx="5" stroke="#F3F5F8"/>
<rect x="117.5" y="73.5" width="36" height="51" rx="4.5" stroke="#F3F5F8"/>
<rect x="356.5" y="1.5" width="102" height="67" rx="14.5" stroke="#F3F5F8" stroke-width="3"/>
<rect x="364.5" y="9.5" width="40" height="51" rx="4.5" stroke="#F3F5F8"/>
<rect x="409.5" y="9.5" width="19" height="14" rx="1.5" stroke="#F3F5F8"/>
<rect x="409.5" y="27.5" width="19" height="15" rx="1.5" stroke="#F3F5F8"/>
<rect x="409.5" y="46.5" width="19" height="14" rx="1.5" stroke="#F3F5F8"/>
<rect x="431.5" y="9.5" width="19" height="14" rx="1.5" stroke="#F3F5F8"/>
<rect x="431.5" y="27.5" width="19" height="15" rx="1.5" stroke="#F3F5F8"/>
<rect x="431.5" y="46.5" width="19" height="14" rx="1.5" stroke="#F3F5F8"/>
<rect x="-1.5" y="1.5" width="35.321" height="47" rx="3.5" transform="matrix(-1 1.1102e-07 1.1102e-07 1 419 134)" stroke="#F3F5F8" stroke-width="3"/>
<rect x="-0.5" y="0.5" width="25.3457" height="5" rx="2.5" transform="matrix(-1 0 0 1 415.012 172)" stroke="#F3F5F8"/>
<rect width="8.38272" height="1" transform="matrix(-1 0 0 1 396.852 138)" fill="#F3F5F8"/>
<rect width="5.98765" height="1" transform="matrix(-1 0 0 1 394.457 140)" fill="#F3F5F8"/>
<rect width="8.38272" height="1" transform="matrix(-1 0 0 1 396.852 142)" fill="#F3F5F8"/>
<path d="M392.562 159C392.562 163.614 397.075 167.5 402.839 167.5C408.604 167.5 413.117 163.614 413.117 159C413.117 154.386 408.604 150.5 402.839 150.5C397.075 150.5 392.562 154.386 392.562 159Z" stroke="#F3F5F8"/>
<mask id="path-37-inside-1_82_75" fill="white">
<path d="M395.654 159C395.654 159.788 395.84 160.568 396.201 161.296C396.562 162.024 397.092 162.685 397.759 163.243C398.426 163.8 399.218 164.242 400.09 164.543C400.962 164.845 401.896 165 402.839 165L402.839 159H395.654Z"/>
</mask>
<path d="M395.654 159C395.654 159.788 395.84 160.568 396.201 161.296C396.562 162.024 397.092 162.685 397.759 163.243C398.426 163.8 399.218 164.242 400.09 164.543C400.962 164.845 401.896 165 402.839 165L402.839 159H395.654Z" stroke="#F3F5F8" stroke-width="2" mask="url(#path-37-inside-1_82_75)"/>
<path d="M113.361 309.413C102.997 309.413 94.594 306.802 94.594 303.579C94.594 300.355 102.997 297.744 113.361 297.744C123.725 297.744 132.128 300.37 132.128 303.579C132.128 306.788 123.725 309.413 113.361 309.413ZM94.594 344.421C94.594 347.645 102.997 350.256 113.361 350.256C123.725 350.256 132.128 347.645 132.128 344.421V333.306C126.416 335.978 117.07 336.276 113.361 336.276C109.652 336.276 100.306 335.984 94.594 333.306V344.421ZM94.594 326.917C95.9851 328.215 102.539 330.441 113.361 330.441C124.182 330.441 130.737 328.215 132.128 326.917V311.456C127.072 314.606 118.991 315.248 113.361 315.248C107.731 315.248 99.6493 314.606 94.594 311.456V326.917Z" fill="#F3F5F8"/>
<circle cx="113" cy="324" r="46.5" stroke="#F3F5F8" stroke-width="3"/>
<g clip-path="url(#clip0_82_75)">
<path d="M421.782 365.328C422.396 365.939 422.791 366.778 422.838 367.744L422.837 367.936L422.825 374.542L422.823 375.723L423.97 376.002C424.333 376.09 424.618 376.227 424.832 376.393L424.832 376.393C425.199 376.675 425.432 377.058 425.433 377.703L425.432 404.113L425.432 404.267C425.394 404.847 425.138 405.376 424.732 405.775C424.295 406.205 423.696 406.469 423.032 406.469H419.055H418.96L418.869 406.481H367.384C366.334 406.481 365.382 406.06 364.689 405.379L363.638 406.449L364.689 405.379C364.036 404.736 363.624 403.877 363.574 402.933L363.574 402.738L363.565 364.165H383.84L383.876 364.248L384.862 364.249L419.151 364.277L419.36 364.278C420.338 364.327 421.174 364.722 421.782 365.328L421.782 365.328Z" stroke="#F3F5F8" stroke-width="3"/>
<mask id="path-41-inside-2_82_75" fill="white">
<path fill-rule="evenodd" clip-rule="evenodd" d="M424.234 374.545H373.635C373.297 374.545 373.009 374.677 372.805 374.89C372.576 375.129 372.439 375.472 372.439 375.855V407.981H369.844V375.855C369.844 374.799 370.249 373.824 370.93 373.114C371.61 372.404 372.553 371.961 373.635 371.961H424.234V374.545Z"/>
</mask>
<path d="M424.234 374.545V377.545H427.234V374.545H424.234ZM372.805 374.89L374.971 376.965L374.971 376.965L372.805 374.89ZM372.439 407.981V410.981H375.439V407.981H372.439ZM369.844 407.981H366.844V410.981H369.844V407.981ZM370.93 373.114L368.764 371.038L368.764 371.038L370.93 373.114ZM424.234 371.961H427.234V368.961H424.234V371.961ZM424.234 371.545H373.635V377.545H424.234V371.545ZM373.635 371.545C372.479 371.545 371.408 372.012 370.639 372.814L374.971 376.965C374.61 377.343 374.116 377.545 373.635 377.545V371.545ZM370.639 372.814C369.831 373.657 369.439 374.764 369.439 375.855H375.439C375.439 376.181 375.32 376.601 374.971 376.965L370.639 372.814ZM369.439 375.855V407.981H375.439V375.855H369.439ZM372.439 404.981H369.844V410.981H372.439V404.981ZM372.844 407.981V375.855H366.844V407.981H372.844ZM372.844 375.855C372.844 375.571 372.951 375.34 373.096 375.189L368.764 371.038C367.547 372.308 366.844 374.027 366.844 375.855H372.844ZM373.096 375.189C373.172 375.11 373.253 375.055 373.333 375.02C373.411 374.986 373.508 374.961 373.635 374.961V368.961C371.697 368.961 369.983 369.766 368.764 371.038L373.096 375.189ZM373.635 374.961H424.234V368.961H373.635V374.961ZM421.234 371.961V374.545H427.234V371.961H421.234Z" fill="#F3F5F8" mask="url(#path-41-inside-2_82_75)"/>
</g>
<defs>
<filter id="filter0_d_82_75" x="161" y="145.642" width="210.357" height="210.358" filterUnits="userSpaceOnUse" color-interpolation-filters="sRGB">
<feFlood flood-opacity="0" result="BackgroundImageFix"/>
<feColorMatrix in="SourceAlpha" type="matrix" values="0 0 0 0 0 0 0 0 0 0 0 0 0 0 0 0 0 0 127 0" result="hardAlpha"/>
<feOffset/>
<feGaussianBlur stdDeviation="7.5"/>
<feComposite in2="hardAlpha" operator="out"/>
<feColorMatrix type="matrix" values="0 0 0 0 0.952941 0 0 0 0 0.960784 0 0 0 0 0.972549 0 0 0 1 0"/>
<feBlend mode="normal" in2="BackgroundImageFix" result="effect1_dropShadow_82_75"/>
<feBlend mode="normal" in="SourceGraphic" in2="effect1_dropShadow_82_75" result="shape"/>
</filter>
<clipPath id="clip0_82_75">
<rect width="65" height="53" fill="white" transform="translate(362 355)"/>
</clipPath>
</defs>
</svg>
