<svg width="422" height="545" viewBox="0 0 422 545" fill="none" xmlns="http://www.w3.org/2000/svg">
<path d="M357 238V133C357 130.239 354.761 128 352 128H171" stroke="#F3F5F8" stroke-width="4"/>
<path d="M198 285L198 284.551L198 283.31V283.31C198 283.139 197.861 283 197.69 283L149 283" stroke="#F3F5F8" stroke-width="4"/>
<path d="M203 390C203 426.198 203 448.017 203 458.004C203 460.766 200.761 463 198 463H135" stroke="#F3F5F8" stroke-width="4"/>
<path d="M295 433V501" stroke="#F3F5F8" stroke-width="4"/>
<g filter="url(#filter0_d_32_516)">
<circle cx="292.5" cy="327.5" r="114.5" fill="#F3F5F8"/>
</g>
<path d="M237.939 378.187C239.281 379.077 240.307 380.127 241.02 381.338C241.73 382.547 242.085 383.861 242.085 385.28C242.085 386.7 241.73 388.014 241.02 389.223C240.307 390.434 239.281 391.484 237.939 392.373C236.878 393.097 235.663 393.647 234.295 394.023C232.927 394.397 231.504 394.584 230.024 394.584C228.543 394.584 227.125 394.397 225.772 394.023C224.418 393.647 223.196 393.097 222.107 392.373C221.38 391.9 220.723 391.344 220.137 390.706L219.467 389.911L221.647 383.276L223.489 385.029C223.769 385.308 223.999 385.51 224.18 385.635C224.36 385.761 224.675 385.976 225.123 386.281L225.416 386.448C225.974 386.838 226.665 387.144 227.489 387.367C228.313 387.589 229.158 387.7 230.024 387.7C230.917 387.7 231.769 387.589 232.578 387.367C233.388 387.144 234.086 386.838 234.673 386.448C235.119 386.143 235.342 385.746 235.342 385.259C235.342 384.772 235.119 384.376 234.673 384.07C234.086 383.68 233.388 383.381 232.578 383.173C231.769 382.965 230.917 382.86 230.024 382.86C228.543 382.86 227.125 382.672 225.772 382.296C224.418 381.92 223.196 381.372 222.107 380.65C220.765 379.758 219.745 378.708 219.047 377.499C218.349 376.288 218 374.973 218 373.554C218 372.137 218.349 370.823 219.047 369.612C219.745 368.401 220.765 367.35 222.107 366.461C223.196 365.737 224.418 365.188 225.772 364.814C227.125 364.438 228.543 364.25 230.024 364.25C231.504 364.25 232.927 364.438 234.295 364.814C235.663 365.188 236.878 365.737 237.939 366.461C238.331 366.711 238.68 366.969 238.986 367.234C239.295 367.497 239.602 367.782 239.909 368.089L240.578 368.838L238.402 375.683L236.514 373.763C236.291 373.541 236.104 373.367 235.951 373.241C235.797 373.116 235.538 372.942 235.175 372.72C235.118 372.665 235.041 372.61 234.944 372.553C234.846 372.498 234.742 372.443 234.63 372.386C234.072 371.996 233.388 371.69 232.578 371.467C231.769 371.245 230.917 371.134 230.024 371.134C229.158 371.134 228.313 371.245 227.489 371.467C226.665 371.69 225.974 371.996 225.416 372.386C224.969 372.692 224.746 373.088 224.746 373.575C224.746 374.062 224.969 374.458 225.416 374.764C225.974 375.154 226.665 375.453 227.489 375.661C228.313 375.87 229.158 375.974 230.024 375.974C231.504 375.974 232.927 376.162 234.295 376.538C235.663 376.914 236.878 377.464 237.939 378.187Z" fill="#3755FA"/>
<path d="M266.17 365.002H272.454V394.251H265.753V382.066C265.753 381.983 265.705 381.928 265.607 381.899C265.508 381.873 265.431 381.901 265.376 381.984L261.647 389.744H256.411L252.642 382.027C252.585 381.915 252.515 381.873 252.432 381.899C252.349 381.928 252.307 381.997 252.307 382.108V394.251H245.604V365.002H251.845L258.84 379.44C258.897 379.494 258.96 379.522 259.029 379.522C259.1 379.522 259.149 379.494 259.175 379.44L266.17 365.002Z" fill="#3755FA"/>
<path d="M295.409 365.002L305.963 394.251H298.843L297.753 391.288C297.699 391.094 297.574 390.997 297.379 390.997H284.728C284.561 390.997 284.435 391.094 284.35 391.288L283.303 394.251H276.183L286.74 365.002H295.409ZM290.676 373.763L287.075 383.779C287.018 383.917 287.031 384.041 287.114 384.152C287.199 384.264 287.311 384.319 287.449 384.319H294.697C295.06 384.319 295.186 384.139 295.075 383.779L291.47 373.763C291.387 373.569 291.248 373.472 291.053 373.472C290.858 373.472 290.733 373.569 290.676 373.763Z" fill="#3755FA"/>
<path d="M309.4 364.96H324.773C326.533 364.96 328.187 365.293 329.735 365.96C331.286 366.628 332.647 367.538 333.82 368.693C334.993 369.847 335.915 371.204 336.584 372.762C337.254 374.319 337.589 375.974 337.589 377.726C337.589 379.202 337.338 380.629 336.837 382.005C336.334 383.382 335.607 384.641 334.657 385.781C333.233 387.534 331.446 388.813 329.297 389.62L331.056 394.25H323.851L322.511 390.706C322.455 390.538 322.343 390.454 322.177 390.454H316.435C316.212 390.454 316.1 390.579 316.1 390.83V394.25H309.4V364.96ZM316.435 383.779H324.731C325.569 383.779 326.357 383.619 327.096 383.297C327.837 382.978 328.486 382.547 329.044 382.005C329.602 381.461 330.043 380.822 330.365 380.086C330.686 379.348 330.846 378.561 330.846 377.726C330.846 376.894 330.692 376.108 330.384 375.37C330.077 374.632 329.645 373.985 329.087 373.429C328.529 372.873 327.879 372.436 327.138 372.116C326.398 371.795 325.609 371.634 324.773 371.634H316.435C316.212 371.634 316.1 371.76 316.1 372.01V383.443C316.1 383.667 316.212 383.779 316.435 383.779Z" fill="#3755FA"/>
<path d="M342.073 365.002H368V371.677H358.7C358.505 371.677 358.408 371.774 358.408 371.968V394.251H351.705V371.968C351.705 371.774 351.607 371.677 351.413 371.677H342.073V365.002Z" fill="#3755FA"/>
<path d="M292.563 275.901C296.971 275.901 300.544 272.342 300.544 267.951C300.544 263.56 296.971 260 292.563 260C288.155 260 284.582 263.56 284.582 267.951C284.582 272.342 288.155 275.901 292.563 275.901Z" fill="#3755FA"/>
<path d="M311.608 268.074C313.119 262.95 320.941 265.239 319.429 270.364L314.462 287.035C313.871 289.038 311.867 290.243 309.85 289.89L299.677 288.095L299.762 314.269L303.765 334.48C303.812 334.72 303.836 334.958 303.841 335.194L304.982 353.335C305.318 358.669 297.177 359.178 296.842 353.844L295.707 335.81L292.902 321.648L290.097 335.81L288.962 353.844C288.627 359.178 280.486 358.669 280.822 353.335L281.963 335.194C281.968 334.958 281.992 334.72 282.039 334.48L286.042 314.269L286.127 288.095L275.954 289.891C273.937 290.245 271.933 289.039 271.342 287.036L266.376 270.364C264.864 265.24 272.686 262.95 274.197 268.075L278.122 281.251C292.594 278.686 293.21 278.686 307.682 281.25L311.608 268.074Z" fill="#3755FA"/>
<path d="M276 128.5V107.5V49.5V40C276 37.2386 273.761 35 271 35H197.5" stroke="#F3F5F8" stroke-width="4"/>
<rect x="1.5" y="82.5" width="168" height="111" rx="14.5" stroke="#F3F5F8" stroke-width="3"/>
<rect x="56.5" y="97.5" width="58" height="5" rx="2.5" stroke="#F3F5F8"/>
<rect x="44.5" y="90.5" width="83" height="5" rx="2.5" stroke="#F3F5F8"/>
<rect x="9.5" y="117.5" width="152" height="5" rx="2.5" stroke="#F3F5F8"/>
<rect x="9.5" y="135.5" width="100" height="5" rx="2.5" stroke="#F3F5F8"/>
<rect x="9.5" y="125.5" width="89" height="5" rx="2.5" stroke="#F3F5F8"/>
<rect x="9.5" y="143.5" width="102" height="5" rx="2.5" stroke="#F3F5F8"/>
<rect x="9.5" y="166.5" width="63" height="10" rx="5" stroke="#F3F5F8"/>
<rect x="117.5" y="128.5" width="36" height="51" rx="4.5" stroke="#F3F5F8"/>
<rect x="94.5" y="1.5" width="102" height="67" rx="14.5" stroke="#F3F5F8" stroke-width="3"/>
<rect x="102.5" y="9.5" width="40" height="51" rx="4.5" stroke="#F3F5F8"/>
<rect x="147.5" y="9.5" width="19" height="14" rx="1.5" stroke="#F3F5F8"/>
<rect x="147.5" y="27.5" width="19" height="15" rx="1.5" stroke="#F3F5F8"/>
<rect x="147.5" y="46.5" width="19" height="14" rx="1.5" stroke="#F3F5F8"/>
<rect x="169.5" y="9.5" width="19" height="14" rx="1.5" stroke="#F3F5F8"/>
<rect x="169.5" y="27.5" width="19" height="15" rx="1.5" stroke="#F3F5F8"/>
<rect x="169.5" y="46.5" width="19" height="14" rx="1.5" stroke="#F3F5F8"/>
<rect x="118.5" y="259.5" width="29" height="47" rx="3.5" stroke="#F3F5F8" stroke-width="3"/>
<rect x="122.5" y="296.5" width="21" height="5" rx="2.5" stroke="#F3F5F8"/>
<rect x="138" y="262" width="7" height="1" fill="#F3F5F8"/>
<rect x="140" y="264" width="5" height="1" fill="#F3F5F8"/>
<rect x="138" y="266" width="7" height="1" fill="#F3F5F8"/>
<circle cx="133" cy="283" r="8.5" stroke="#F3F5F8"/>
<mask id="path-37-inside-1_32_516" fill="white">
<path d="M139 283C139 283.788 138.845 284.568 138.543 285.296C138.242 286.024 137.8 286.685 137.243 287.243C136.685 287.8 136.024 288.242 135.296 288.543C134.568 288.845 133.788 289 133 289L133 283H139Z"/>
</mask>
<path d="M139 283C139 283.788 138.845 284.568 138.543 285.296C138.242 286.024 137.8 286.685 137.243 287.243C136.685 287.8 136.024 288.242 135.296 288.543C134.568 288.845 133.788 289 133 289L133 283H139Z" stroke="#F3F5F8" stroke-width="2" mask="url(#path-37-inside-1_32_516)"/>
<path d="M90.3609 435.413C79.9969 435.413 71.594 432.802 71.594 429.579C71.594 426.355 79.9969 423.744 90.3609 423.744C100.725 423.744 109.128 426.37 109.128 429.579C109.128 432.788 100.725 435.413 90.3609 435.413ZM71.594 470.421C71.594 473.645 79.9969 476.256 90.3609 476.256C100.725 476.256 109.128 473.645 109.128 470.421V459.306C103.416 461.978 94.0697 462.276 90.3609 462.276C86.6521 462.276 77.3062 461.984 71.594 459.306V470.421ZM71.594 452.917C72.9851 454.215 79.5394 456.441 90.3609 456.441C101.182 456.441 107.737 454.215 109.128 452.917V437.456C104.072 440.606 95.991 441.248 90.3609 441.248C84.7308 441.248 76.6493 440.606 71.594 437.456V452.917Z" fill="#F3F5F8"/>
<circle cx="90" cy="450" r="46.5" stroke="#F3F5F8" stroke-width="3"/>
<g clip-path="url(#clip0_32_516)">
<path d="M323.782 502.328C324.396 502.939 324.791 503.778 324.838 504.744L324.837 504.936L324.825 511.542L324.823 512.723L325.97 513.002C326.333 513.09 326.618 513.227 326.832 513.393L326.832 513.393C327.199 513.675 327.432 514.058 327.433 514.703L327.432 541.113L327.432 541.267C327.394 541.848 327.138 542.376 326.732 542.775C326.295 543.205 325.696 543.469 325.032 543.469H321.055H320.96L320.869 543.481H269.384C268.334 543.481 267.382 543.06 266.689 542.379L265.638 543.449L266.689 542.379C266.036 541.736 265.624 540.877 265.574 539.933L265.574 539.738L265.565 501.165H285.84L285.876 501.248L286.862 501.249L321.151 501.277L321.36 501.278C322.338 501.327 323.174 501.722 323.782 502.328L323.782 502.328ZM320.875 543.481H320.874H320.875Z" stroke="#F3F5F8" stroke-width="3"/>
<mask id="path-41-inside-2_32_516" fill="white">
<path fill-rule="evenodd" clip-rule="evenodd" d="M326.234 511.545H275.635C275.297 511.545 275.009 511.677 274.805 511.89C274.576 512.129 274.439 512.472 274.439 512.855V544.981H271.844V512.855C271.844 511.799 272.249 510.824 272.93 510.114C273.61 509.404 274.553 508.961 275.635 508.961H326.234V511.545Z"/>
</mask>
<path d="M326.234 511.545V514.545H329.234V511.545H326.234ZM274.805 511.89L276.971 513.965L276.971 513.965L274.805 511.89ZM274.439 544.981V547.981H277.439V544.981H274.439ZM271.844 544.981H268.844V547.981H271.844V544.981ZM272.93 510.114L270.764 508.038L270.764 508.038L272.93 510.114ZM326.234 508.961H329.234V505.961H326.234V508.961ZM326.234 508.545H275.635V514.545H326.234V508.545ZM275.635 508.545C274.479 508.545 273.408 509.012 272.639 509.814L276.971 513.965C276.61 514.343 276.116 514.545 275.635 514.545V508.545ZM272.639 509.814C271.831 510.657 271.439 511.764 271.439 512.855H277.439C277.439 513.181 277.32 513.601 276.971 513.965L272.639 509.814ZM271.439 512.855V544.981H277.439V512.855H271.439ZM274.439 541.981H271.844V547.981H274.439V541.981ZM274.844 544.981V512.855H268.844V544.981H274.844ZM274.844 512.855C274.844 512.571 274.951 512.34 275.096 512.189L270.764 508.038C269.547 509.308 268.844 511.027 268.844 512.855H274.844ZM275.096 512.189C275.172 512.11 275.253 512.055 275.333 512.02C275.411 511.986 275.508 511.961 275.635 511.961V505.961C273.697 505.961 271.983 506.766 270.764 508.038L275.096 512.189ZM275.635 511.961H326.234V505.961H275.635V511.961ZM323.234 508.961V511.545H329.234V508.961H323.234Z" fill="#F3F5F8" mask="url(#path-41-inside-2_32_516)"/>
</g>
<defs>
<filter id="filter0_d_32_516" x="163" y="198" width="259" height="259" filterUnits="userSpaceOnUse" color-interpolation-filters="sRGB">
<feFlood flood-opacity="0" result="BackgroundImageFix"/>
<feColorMatrix in="SourceAlpha" type="matrix" values="0 0 0 0 0 0 0 0 0 0 0 0 0 0 0 0 0 0 127 0" result="hardAlpha"/>
<feOffset/>
<feGaussianBlur stdDeviation="7.5"/>
<feComposite in2="hardAlpha" operator="out"/>
<feColorMatrix type="matrix" values="0 0 0 0 0.952941 0 0 0 0 0.960784 0 0 0 0 0.972549 0 0 0 1 0"/>
<feBlend mode="normal" in2="BackgroundImageFix" result="effect1_dropShadow_32_516"/>
<feBlend mode="normal" in="SourceGraphic" in2="effect1_dropShadow_32_516" result="shape"/>
</filter>
<clipPath id="clip0_32_516">
<rect width="65" height="53" fill="white" transform="translate(264 492)"/>
</clipPath>
</defs>
</svg>
