<svg width="727" height="346" viewBox="0 0 727 346" fill="none" xmlns="http://www.w3.org/2000/svg">
<path d="M557 218L557 241.807L557 307.561L557 319C557 321.761 559.239 324 562 324L636 324" stroke="#F3F5F8" stroke-width="4"/>
<path d="M357 166V166C357 164.343 355.657 163 354 163H171" stroke="#F3F5F8" stroke-width="4"/>
<path d="M366 124L366 123.551L366 122.31V122.31C366 122.139 365.861 122 365.69 122L317 122" stroke="#F3F5F8" stroke-width="4"/>
<path d="M566 134C566 133.65 566 133.317 566 133C566 130.238 568.239 128 571 128L634 128" stroke="#F3F5F8" stroke-width="4"/>
<g filter="url(#filter0_d_77_74)">
<circle cx="460.5" cy="166.5" r="114.5" fill="#F3F5F8"/>
</g>
<path d="M405.939 217.187C407.281 218.077 408.307 219.127 409.02 220.338C409.73 221.547 410.085 222.861 410.085 224.28C410.085 225.7 409.73 227.014 409.02 228.223C408.307 229.434 407.281 230.484 405.939 231.373C404.878 232.097 403.663 232.647 402.295 233.023C400.927 233.397 399.504 233.584 398.024 233.584C396.543 233.584 395.125 233.397 393.772 233.023C392.418 232.647 391.196 232.097 390.107 231.373C389.38 230.9 388.723 230.344 388.137 229.706L387.467 228.911L389.647 222.276L391.489 224.029C391.769 224.308 391.999 224.51 392.18 224.635C392.36 224.761 392.675 224.976 393.123 225.281L393.416 225.448C393.974 225.838 394.665 226.144 395.489 226.367C396.313 226.589 397.158 226.7 398.024 226.7C398.917 226.7 399.769 226.589 400.578 226.367C401.388 226.144 402.086 225.838 402.673 225.448C403.119 225.143 403.342 224.746 403.342 224.259C403.342 223.772 403.119 223.376 402.673 223.07C402.086 222.68 401.388 222.381 400.578 222.173C399.769 221.965 398.917 221.86 398.024 221.86C396.543 221.86 395.125 221.672 393.772 221.296C392.418 220.92 391.196 220.372 390.107 219.65C388.765 218.758 387.745 217.708 387.047 216.499C386.349 215.288 386 213.973 386 212.554C386 211.137 386.349 209.823 387.047 208.612C387.745 207.401 388.765 206.35 390.107 205.461C391.196 204.737 392.418 204.188 393.772 203.814C395.125 203.438 396.543 203.25 398.024 203.25C399.504 203.25 400.927 203.438 402.295 203.814C403.663 204.188 404.878 204.737 405.939 205.461C406.331 205.711 406.68 205.969 406.986 206.234C407.295 206.497 407.602 206.782 407.909 207.089L408.578 207.838L406.402 214.683L404.514 212.763C404.291 212.541 404.104 212.367 403.951 212.241C403.797 212.116 403.538 211.942 403.175 211.72C403.118 211.665 403.041 211.61 402.944 211.553C402.846 211.498 402.742 211.443 402.63 211.386C402.072 210.996 401.388 210.69 400.578 210.467C399.769 210.245 398.917 210.134 398.024 210.134C397.158 210.134 396.313 210.245 395.489 210.467C394.665 210.69 393.974 210.996 393.416 211.386C392.969 211.692 392.746 212.088 392.746 212.575C392.746 213.062 392.969 213.458 393.416 213.764C393.974 214.154 394.665 214.453 395.489 214.661C396.313 214.87 397.158 214.974 398.024 214.974C399.504 214.974 400.927 215.162 402.295 215.538C403.663 215.914 404.878 216.464 405.939 217.187Z" fill="#3755FA"/>
<path d="M434.17 204.002H440.454V233.251H433.753V221.066C433.753 220.983 433.705 220.928 433.607 220.899C433.508 220.873 433.431 220.901 433.376 220.984L429.647 228.744H424.411L420.642 221.027C420.585 220.915 420.515 220.873 420.432 220.899C420.349 220.928 420.307 220.997 420.307 221.108V233.251H413.604V204.002H419.845L426.84 218.44C426.897 218.494 426.96 218.522 427.029 218.522C427.1 218.522 427.149 218.494 427.175 218.44L434.17 204.002Z" fill="#3755FA"/>
<path d="M463.409 204.002L473.963 233.251H466.843L465.753 230.288C465.699 230.094 465.574 229.997 465.379 229.997H452.728C452.561 229.997 452.435 230.094 452.35 230.288L451.303 233.251H444.183L454.74 204.002H463.409ZM458.676 212.763L455.075 222.779C455.018 222.917 455.031 223.041 455.114 223.152C455.199 223.264 455.311 223.319 455.449 223.319H462.697C463.06 223.319 463.186 223.139 463.075 222.779L459.47 212.763C459.387 212.569 459.248 212.472 459.053 212.472C458.858 212.472 458.733 212.569 458.676 212.763Z" fill="#3755FA"/>
<path d="M477.4 203.96H492.773C494.533 203.96 496.187 204.293 497.735 204.96C499.286 205.628 500.647 206.538 501.82 207.693C502.993 208.847 503.915 210.204 504.585 211.762C505.254 213.319 505.589 214.974 505.589 216.726C505.589 218.202 505.338 219.629 504.837 221.005C504.334 222.382 503.607 223.641 502.658 224.781C501.233 226.534 499.446 227.813 497.297 228.62L499.056 233.25H491.851L490.512 229.706C490.455 229.538 490.343 229.454 490.177 229.454H484.435C484.212 229.454 484.101 229.579 484.101 229.83V233.25H477.4V203.96ZM484.435 222.779H492.731C493.569 222.779 494.357 222.619 495.096 222.297C495.837 221.978 496.486 221.547 497.044 221.005C497.602 220.461 498.043 219.822 498.365 219.086C498.686 218.348 498.846 217.561 498.846 216.726C498.846 215.894 498.692 215.108 498.384 214.37C498.077 213.632 497.645 212.985 497.087 212.429C496.529 211.873 495.879 211.436 495.139 211.116C494.398 210.795 493.609 210.634 492.773 210.634H484.435C484.212 210.634 484.101 210.76 484.101 211.01V222.443C484.101 222.667 484.212 222.779 484.435 222.779Z" fill="#3755FA"/>
<path d="M510.073 204.002H536V210.677H526.7C526.505 210.677 526.408 210.774 526.408 210.968V233.251H519.705V210.968C519.705 210.774 519.607 210.677 519.412 210.677H510.073V204.002Z" fill="#3755FA"/>
<path d="M460.563 114.901C464.971 114.901 468.544 111.342 468.544 106.951C468.544 102.56 464.971 99 460.563 99C456.155 99 452.582 102.56 452.582 106.951C452.582 111.342 456.155 114.901 460.563 114.901Z" fill="#3755FA"/>
<path d="M479.608 107.074C481.119 101.95 488.941 104.239 487.429 109.364L482.462 126.035C481.871 128.038 479.867 129.243 477.85 128.89L467.677 127.095L467.762 153.269L471.765 173.48C471.812 173.72 471.836 173.958 471.841 174.194L472.982 192.335C473.318 197.669 465.177 198.178 464.842 192.844L463.707 174.81L460.902 160.648L458.097 174.81L456.962 192.844C456.627 198.178 448.486 197.669 448.822 192.335L449.963 174.194C449.968 173.958 449.992 173.72 450.039 173.48L454.042 153.269L454.127 127.095L443.954 128.891C441.937 129.245 439.933 128.039 439.342 126.036L434.376 109.364C432.864 104.24 440.686 101.95 442.197 107.075L446.122 120.251C460.594 117.686 461.21 117.686 475.682 120.25L479.608 107.074Z" fill="#3755FA"/>
<path d="M430 128.5V107.5V49.5V40C430 37.2386 427.761 35 425 35H351.5" stroke="#F3F5F8" stroke-width="4"/>
<rect x="1.5" y="117.5" width="168" height="111" rx="14.5" stroke="#F3F5F8" stroke-width="3"/>
<rect x="56.5" y="132.5" width="58" height="5" rx="2.5" stroke="#F3F5F8"/>
<rect x="44.5" y="125.5" width="83" height="5" rx="2.5" stroke="#F3F5F8"/>
<rect x="9.5" y="152.5" width="152" height="5" rx="2.5" stroke="#F3F5F8"/>
<rect x="9.5" y="170.5" width="100" height="5" rx="2.5" stroke="#F3F5F8"/>
<rect x="9.5" y="160.5" width="89" height="5" rx="2.5" stroke="#F3F5F8"/>
<rect x="9.5" y="178.5" width="102" height="5" rx="2.5" stroke="#F3F5F8"/>
<rect x="9.5" y="201.5" width="63" height="10" rx="5" stroke="#F3F5F8"/>
<rect x="117.5" y="163.5" width="36" height="51" rx="4.5" stroke="#F3F5F8"/>
<rect x="248.5" y="1.5" width="102" height="67" rx="14.5" stroke="#F3F5F8" stroke-width="3"/>
<rect x="256.5" y="9.5" width="40" height="51" rx="4.5" stroke="#F3F5F8"/>
<rect x="301.5" y="9.5" width="19" height="14" rx="1.5" stroke="#F3F5F8"/>
<rect x="301.5" y="27.5" width="19" height="15" rx="1.5" stroke="#F3F5F8"/>
<rect x="301.5" y="46.5" width="19" height="14" rx="1.5" stroke="#F3F5F8"/>
<rect x="323.5" y="9.5" width="19" height="14" rx="1.5" stroke="#F3F5F8"/>
<rect x="323.5" y="27.5" width="19" height="15" rx="1.5" stroke="#F3F5F8"/>
<rect x="323.5" y="46.5" width="19" height="14" rx="1.5" stroke="#F3F5F8"/>
<rect x="286.5" y="98.5" width="29" height="47" rx="3.5" stroke="#F3F5F8" stroke-width="3"/>
<rect x="290.5" y="135.5" width="21" height="5" rx="2.5" stroke="#F3F5F8"/>
<rect x="306" y="101" width="7" height="1" fill="#F3F5F8"/>
<rect x="308" y="103" width="5" height="1" fill="#F3F5F8"/>
<rect x="306" y="105" width="7" height="1" fill="#F3F5F8"/>
<circle cx="301" cy="122" r="8.5" stroke="#F3F5F8"/>
<mask id="path-37-inside-1_77_74" fill="white">
<path d="M307 122C307 122.788 306.845 123.568 306.543 124.296C306.242 125.024 305.8 125.685 305.243 126.243C304.685 126.8 304.024 127.242 303.296 127.543C302.568 127.845 301.788 128 301 128L301 122H307Z"/>
</mask>
<path d="M307 122C307 122.788 306.845 123.568 306.543 124.296C306.242 125.024 305.8 125.685 305.243 126.243C304.685 126.8 304.024 127.242 303.296 127.543C302.568 127.845 301.788 128 301 128L301 122H307Z" stroke="#F3F5F8" stroke-width="2" mask="url(#path-37-inside-1_77_74)"/>
<path d="M678.639 126.414C668.275 126.414 659.872 123.803 659.872 120.579C659.872 117.355 668.275 114.745 678.639 114.745C689.003 114.745 697.406 117.37 697.406 120.579C697.406 123.788 689.003 126.414 678.639 126.414ZM659.872 161.421C659.872 164.645 668.275 167.256 678.639 167.256C689.003 167.256 697.406 164.645 697.406 161.421V150.306C691.694 152.979 682.348 153.276 678.639 153.276C674.93 153.276 665.584 152.984 659.872 150.306V161.421ZM659.872 143.917C661.263 145.216 667.818 147.442 678.639 147.442C689.46 147.442 696.015 145.216 697.406 143.917V128.456C692.351 131.606 684.269 132.248 678.639 132.248C673.009 132.248 664.927 131.606 659.872 128.456V143.917Z" fill="#F3F5F8"/>
<circle cx="679" cy="141" r="46.5" transform="rotate(-180 679 141)" stroke="#F3F5F8" stroke-width="3"/>
<g clip-path="url(#clip0_77_74)">
<path d="M693.782 303.328C694.396 303.939 694.791 304.778 694.838 305.744L694.837 305.936L694.825 312.542L694.823 313.723L695.97 314.002C696.333 314.09 696.618 314.227 696.832 314.393L696.832 314.393C697.199 314.675 697.432 315.058 697.433 315.703L697.432 342.113L697.432 342.267C697.394 342.847 697.138 343.376 696.732 343.775C696.295 344.205 695.696 344.469 695.032 344.469H691.055H690.96L690.869 344.481H639.384C638.334 344.481 637.382 344.06 636.689 343.379L635.638 344.449L636.689 343.379C636.036 342.736 635.624 341.877 635.574 340.933L635.574 340.738L635.565 302.165H655.84L655.876 302.248L656.862 302.249L691.151 302.277L691.36 302.278C692.338 302.327 693.174 302.722 693.782 303.328L693.782 303.328Z" stroke="#F3F5F8" stroke-width="3"/>
<mask id="path-41-inside-2_77_74" fill="white">
<path fill-rule="evenodd" clip-rule="evenodd" d="M696.234 312.545H645.635C645.297 312.545 645.009 312.677 644.805 312.89C644.576 313.129 644.439 313.472 644.439 313.855V345.981H641.844V313.855C641.844 312.799 642.249 311.824 642.93 311.114C643.61 310.404 644.553 309.961 645.635 309.961H696.234V312.545Z"/>
</mask>
<path d="M696.234 312.545V315.545H699.234V312.545H696.234ZM644.805 312.89L646.971 314.965L646.971 314.965L644.805 312.89ZM644.439 345.981V348.981H647.439V345.981H644.439ZM641.844 345.981H638.844V348.981H641.844V345.981ZM642.93 311.114L640.764 309.038L640.764 309.038L642.93 311.114ZM696.234 309.961H699.234V306.961H696.234V309.961ZM696.234 309.545H645.635V315.545H696.234V309.545ZM645.635 309.545C644.479 309.545 643.408 310.012 642.639 310.814L646.971 314.965C646.61 315.343 646.116 315.545 645.635 315.545V309.545ZM642.639 310.814C641.831 311.657 641.439 312.764 641.439 313.855H647.439C647.439 314.181 647.32 314.601 646.971 314.965L642.639 310.814ZM641.439 313.855V345.981H647.439V313.855H641.439ZM644.439 342.981H641.844V348.981H644.439V342.981ZM644.844 345.981V313.855H638.844V345.981H644.844ZM644.844 313.855C644.844 313.571 644.951 313.34 645.096 313.189L640.764 309.038C639.547 310.308 638.844 312.027 638.844 313.855H644.844ZM645.096 313.189C645.172 313.11 645.253 313.055 645.333 313.02C645.411 312.986 645.508 312.961 645.635 312.961V306.961C643.697 306.961 641.983 307.766 640.764 309.038L645.096 313.189ZM645.635 312.961H696.234V306.961H645.635V312.961ZM693.234 309.961V312.545H699.234V309.961H693.234Z" fill="#F3F5F8" mask="url(#path-41-inside-2_77_74)"/>
</g>
<defs>
<filter id="filter0_d_77_74" x="331" y="37" width="259" height="259" filterUnits="userSpaceOnUse" color-interpolation-filters="sRGB">
<feFlood flood-opacity="0" result="BackgroundImageFix"/>
<feColorMatrix in="SourceAlpha" type="matrix" values="0 0 0 0 0 0 0 0 0 0 0 0 0 0 0 0 0 0 127 0" result="hardAlpha"/>
<feOffset/>
<feGaussianBlur stdDeviation="7.5"/>
<feComposite in2="hardAlpha" operator="out"/>
<feColorMatrix type="matrix" values="0 0 0 0 0.952941 0 0 0 0 0.960784 0 0 0 0 0.972549 0 0 0 1 0"/>
<feBlend mode="normal" in2="BackgroundImageFix" result="effect1_dropShadow_77_74"/>
<feBlend mode="normal" in="SourceGraphic" in2="effect1_dropShadow_77_74" result="shape"/>
</filter>
<clipPath id="clip0_77_74">
<rect width="65" height="53" fill="white" transform="translate(634 293)"/>
</clipPath>
</defs>
</svg>
