<svg width="54" height="98" viewBox="0 0 54 98" fill="none" xmlns="http://www.w3.org/2000/svg">
<path d="M26.3798 15.9011C30.7877 15.9011 34.3609 12.3415 34.3609 7.95056C34.3609 3.55959 30.7877 0 26.3798 0C21.972 0 18.3987 3.55959 18.3987 7.95056C18.3987 12.3415 21.972 15.9011 26.3798 15.9011Z" fill="#F3F5F8"/>
<path d="M45.4247 8.07374C46.9362 2.94956 54.7579 5.23884 53.2462 10.3635L48.2791 27.0346C47.6882 29.0376 45.6839 30.243 43.6671 29.8897L33.4942 28.0949L33.5796 54.2694L37.5819 74.4799C37.6289 74.7196 37.6536 74.9584 37.6578 75.1943L38.7994 93.3353C39.1354 98.6689 30.9946 99.1777 30.6587 93.8443L29.5237 75.8102L26.7191 61.6478L23.9145 75.8102L22.7796 93.8443C22.4437 99.1777 14.3029 98.6689 14.6388 93.3353L15.7805 75.1943C15.7846 74.9584 15.8094 74.7196 15.8563 74.4799L19.8587 54.2694L19.944 28.0953L9.77113 29.8914C7.75437 30.2447 5.75008 29.0393 5.15921 27.0363L0.192919 10.3644C-1.31875 5.23969 6.50287 2.95036 8.01441 8.07459L11.9395 21.2511C26.4109 18.6858 27.0273 18.6861 41.4989 21.2499L45.4247 8.07374Z" fill="#F3F5F8"/>
</svg>
